<?xml version="1.0" encoding="UTF-8"?>
<svg xmlns="http://www.w3.org/2000/svg" viewBox="0 0 280 80" width="280" height="80"
     role="img" aria-label="Fit mit Marco — Personal Training für Senioren">
  <circle cx="40" cy="40" r="38" fill="none" stroke="#1A3C34" stroke-opacity="0.12" stroke-width="1.5"/>
  <circle cx="40" cy="40" r="28" fill="none" stroke="#1A3C34" stroke-opacity="0.18" stroke-width="1"/>
  <circle cx="40" cy="20" r="6" fill="#00B894"/>
  <path d="M40 28 C40 28 32 38 28 48 C26 53 30 55 33 52 L38 44" stroke="#1A3C34" stroke-width="3" stroke-linecap="round" fill="none"/>
  <path d="M40 28 C40 28 48 38 52 48 C54 53 50 55 47 52 L42 44" stroke="#00B894" stroke-width="3" stroke-linecap="round" fill="none"/>
  <path d="M34 36 C30 34 25 36 24 38" stroke="#1A3C34" stroke-width="2.5" stroke-linecap="round" fill="none"/>
  <path d="M46 36 C50 34 55 36 56 38" stroke="#00B894" stroke-width="2.5" stroke-linecap="round" fill="none"/>
  <text x="88" y="32" font-family="Cormorant Garamond, EB Garamond, Garamond, Times New Roman, serif" font-size="28" font-weight="700" fill="#1A3C34">fit mit</text>
  <text x="88" y="60" font-family="Cormorant Garamond, EB Garamond, Garamond, Times New Roman, serif" font-size="28" font-weight="700" fill="#00B894">marco</text>
  <text x="89" y="74" font-family="Outfit, ui-sans-serif, system-ui, sans-serif" font-size="8" fill="#1A3C34" fill-opacity="0.45" letter-spacing="3">PERSONAL TRAINING FÜR SENIOREN</text>
</svg>